<svg width="16" height="16" viewBox="0 0 16 16" fill="none" xmlns="http://www.w3.org/2000/svg">
<path d="M1.33334 2.66667C1.33334 1.93029 1.93029 1.33334 2.66667 1.33334C3.40305 1.33334 4 1.93029 4 2.66667C4 3.22623 3.65531 3.70529 3.16667 3.90308V7.5H7.5V3.90308C7.01134 3.70529 6.66667 3.22623 6.66667 2.66667C6.66667 1.93029 7.2636 1.33334 8 1.33334C8.7364 1.33334 9.33334 1.93029 9.33334 2.66667C9.33334 3.22623 8.98867 3.70529 8.5 3.90308V7.5H10.6667C11.3093 7.5 11.7411 7.49894 12.0631 7.45567C12.3707 7.41427 12.5024 7.3428 12.5893 7.25594C12.6761 7.16907 12.7476 7.0374 12.789 6.72974C12.8323 6.40772 12.8333 5.97601 12.8333 5.33334V3.90308C12.3447 3.70529 12 3.22623 12 2.66667C12 1.93029 12.5969 1.33334 13.3333 1.33334C14.0697 1.33334 14.6667 1.93029 14.6667 2.66667C14.6667 3.22623 14.322 3.70529 13.8333 3.90308V5.368C13.8333 5.96699 13.8334 6.46647 13.7801 6.863C13.7238 7.28154 13.6 7.6594 13.2963 7.963C12.9927 8.26667 12.6149 8.39047 12.1963 8.44674C11.7998 8.50007 11.3003 8.5 10.7013 8.5H8.5V12.0969C8.98867 12.2947 9.33334 12.7738 9.33334 13.3333C9.33334 14.0697 8.7364 14.6667 8 14.6667C7.2636 14.6667 6.66667 14.0697 6.66667 13.3333C6.66667 12.7738 7.01134 12.2947 7.5 12.0969V8.5H3.16667V12.0969C3.65531 12.2947 4 12.7738 4 13.3333C4 14.0697 3.40305 14.6667 2.66667 14.6667C1.93029 14.6667 1.33334 14.0697 1.33334 13.3333C1.33334 12.7738 1.67803 12.2947 2.16667 12.0969V3.90308C1.67803 3.70529 1.33334 3.22623 1.33334 2.66667Z" fill="#F79F11"/>
<path fill-rule="evenodd" clip-rule="evenodd" d="M11.5 10C11.5 9.72387 11.7239 9.5 12 9.5H13.5238C14.4408 9.5 15.1667 10.2559 15.1667 11.1667C15.1667 11.8857 14.7142 12.5083 14.0724 12.7385L15.0931 14.4056C15.2373 14.6411 15.1633 14.9489 14.9277 15.0931C14.6923 15.2373 14.3844 15.1633 14.2403 14.9277L12.9579 12.8333H12.5V14.6667C12.5 14.9428 12.2761 15.1667 12 15.1667C11.7239 15.1667 11.5 14.9428 11.5 14.6667V10ZM12.5 11.8333H13.5238C13.8692 11.8333 14.1667 11.5446 14.1667 11.1667C14.1667 10.7887 13.8692 10.5 13.5238 10.5H12.5V11.8333Z" fill="#F79F11"/>
</svg>
