<svg width="190" height="48" viewBox="0 0 190 48" fill="none" xmlns="http://www.w3.org/2000/svg">
<g clip-path="url(#clip0_1_3)">
<path d="M14.2512 39.5428C16.9021 39.5428 19.829 39.101 22.4246 37.4994V38.6592H30.2665V22.4781C30.2665 14.6914 26.2904 11.0465 14.2512 11.0465C9.72276 11.0465 -0.273056 12.0405 0.223973 20.3243H8.83918C8.83918 17.3422 13.3124 17.6735 14.2512 17.6183C18.2827 17.6183 22.3694 17.2869 22.3694 21.8706H14.2512C3.20616 21.8706 0.00305176 25.2394 0.00305176 29.9888C0.00305176 34.1307 3.15094 39.5428 14.2512 39.5428ZM7.84511 29.9335C7.84511 28.5529 10.275 28.0559 14.2512 28.0559H22.4246V28.9947C22.4246 31.3142 19.332 32.5844 14.2512 32.5844C9.28096 32.5844 7.90033 31.3142 7.84511 29.9335Z" fill="white"/>
<path d="M39.7655 0.00143433H31.9234V38.6593H39.7655V0.00143433Z" fill="white"/>
<path d="M54.7866 39.5428C57.5479 39.5428 60.4749 38.4935 62.6839 37.2233V38.6592H70.5259V11.0465H63.1809V27.9455C63.1809 32.474 60.6406 32.4739 55.4494 32.4739C51.3627 32.4739 49.8164 31.4799 49.8164 27.9455V11.0465H41.9743V27.9455C41.9743 35.3457 47.4969 39.5428 54.7866 39.5428Z" fill="white"/>
<path d="M120.671 39.2667C129.507 39.2667 135.637 34.7935 136.189 27.2276H128.844C128.071 30.5411 125.53 32.8606 120.671 32.8606C115.424 32.8606 112.497 29.8784 112.497 25.1842C112.497 20.4901 115.424 17.6184 120.671 17.6184C127.408 17.6184 129.065 22.2573 129.065 24.4663L136.244 24.4111C136.244 16.072 129.286 11.157 120.671 11.157C111.393 11.157 105.042 16.6795 105.042 25.1842C105.042 33.6889 111.393 39.2667 120.671 39.2667Z" fill="#F79F11"/>
<path d="M152.149 39.5428C154.8 39.5428 157.727 39.101 160.322 37.4994V38.6592H168.164V22.4781C168.164 14.6914 164.188 11.0465 152.149 11.0465C147.621 11.0465 137.625 12.0405 138.122 20.3243H146.737C146.737 17.3422 151.21 17.6735 152.149 17.6183C156.181 17.6183 160.267 17.2869 160.267 21.8706H152.149C141.104 21.8706 137.901 25.2394 137.901 29.9888C137.901 34.1307 141.049 39.5428 152.149 39.5428ZM145.743 29.9335C145.743 28.5529 148.173 28.0559 152.149 28.0559H160.322V28.9947C160.322 31.3142 157.23 32.5844 152.149 32.5844C147.179 32.5844 145.798 31.3142 145.743 29.9335Z" fill="#F79F11"/>
<path d="M170.373 38.6592H178.215V24.4663C178.215 19.496 180.756 17.6183 185.395 17.6183L189.095 17.6735L189.537 11.1017C188.984 11.0465 186.444 11.0465 186.113 11.0465C182.578 11.0465 180.038 11.654 178.16 12.7033V11.0465H170.373V38.6592Z" fill="#F79F11"/>
<path fill-rule="evenodd" clip-rule="evenodd" d="M87.8638 47.7643H0.0961304V41.1424H87.974C94.3803 41.1424 95.5952 38.9891 95.5952 37.829V37.0563C93.4412 38.3814 90.7904 39.265 87.8083 39.265C78.5301 39.265 72.1793 33.6875 72.1793 25.1827C72.1793 16.6779 78.5301 11.1552 87.8083 11.1552C90.6802 11.1552 93.331 11.6521 95.5952 12.7014V11.045H103.382V35.1228C103.382 43.7614 97.8458 47.7346 87.974 47.7637C87.9375 47.7643 87.9003 47.7643 87.8638 47.7643ZM79.6348 25.2375C79.6348 30.0422 83.1693 32.8586 87.974 32.8586C92.8342 32.8586 96.203 30.0422 96.203 25.2375C96.203 20.4334 92.8342 17.617 87.974 17.617C83.1693 17.617 79.6348 20.4334 79.6348 25.2375Z" fill="white"/>
</g>
<defs>
<clipPath id="clip0_1_3">
<rect width="189.972" height="48" fill="white"/>
</clipPath>
</defs>
</svg>
