<svg width="81" height="80" viewBox="0 0 81 80" fill="none" xmlns="http://www.w3.org/2000/svg">
<path fill-rule="evenodd" clip-rule="evenodd" d="M20.7326 8C21.9656 8 22.9651 8.99956 22.9651 10.2326V13.4628L27.6493 12.5259C32.9872 11.4584 38.5204 11.9664 43.5746 13.988L44.8049 14.4802C48.6104 16.0024 52.7992 16.2867 56.7756 15.2926C60.5837 14.3406 63.6414 18.4678 61.622 21.8335L57.8162 28.1766C56.6958 30.044 56.516 30.4293 56.4702 30.7803C56.4452 30.9725 56.4452 31.1671 56.4702 31.3593C56.516 31.7103 56.6958 32.0955 57.8162 33.9629L62.4618 41.7057C64.1585 44.5333 62.6413 48.1962 59.4421 48.996L59.1442 49.0704C53.4214 50.5011 47.3932 50.0921 41.9163 47.9012C37.6661 46.2012 33.0135 45.774 28.525 46.6718L22.9651 47.7839V69.7674C22.9651 71.0004 21.9656 72 20.7326 72C19.4996 72 18.5 71.0004 18.5 69.7674V10.2326C18.5 8.99956 19.4996 8 20.7326 8ZM22.9651 43.2301L27.6493 42.2933C32.9872 41.2258 38.5204 41.734 43.5746 43.7555C48.1799 45.5978 53.249 45.9416 58.0612 44.7387L58.3592 44.6643C58.6494 44.5916 58.787 44.2594 58.6331 44.0028L53.9876 36.2603C53.9283 36.1618 53.8697 36.0644 53.8116 35.968C52.9692 34.5692 52.2253 33.3337 52.0429 31.9383C51.9675 31.3617 51.9675 30.7778 52.0429 30.2013C52.2253 28.8058 52.9692 27.5703 53.8116 26.1717C53.8697 26.075 53.9283 25.9776 53.9876 25.8793L57.7198 19.6587C52.8743 20.8394 47.7796 20.4791 43.1466 18.6259L41.9163 18.1338C37.6661 16.4338 33.0135 16.0066 28.525 16.9043L22.9651 18.0163V43.2301Z" fill="#F79F11"/>
</svg>
