<svg width="81" height="80" viewBox="0 0 81 80" fill="none" xmlns="http://www.w3.org/2000/svg">
<path d="M40.1 40.8C44.7392 40.8 48.5 37.0392 48.5 32.4C48.5 27.7608 44.7392 24 40.1 24C35.4608 24 31.7 27.7608 31.7 32.4C31.7 37.0392 35.4608 40.8 40.1 40.8Z" stroke="#F79F11" stroke-width="3"/>
<path d="M40.1 68C55.3431 68 67.7 55.6431 67.7 40.4C67.7 25.1569 55.3431 12.8 40.1 12.8C24.8569 12.8 12.5 25.1569 12.5 40.4C12.5 55.6431 24.8569 68 40.1 68Z" stroke="#F79F11" stroke-width="3"/>
<path d="M56.5 62.4C56.0629 54.5351 53.6306 48.8 40.0999 48.8C26.5696 48.8 24.1373 54.5351 23.7 62.4" stroke="#F79F11" stroke-width="3" stroke-linecap="round"/>
</svg>
