<svg width="81" height="80" viewBox="0 0 81 80" fill="none" xmlns="http://www.w3.org/2000/svg">
<path d="M23.3 39.2C20.8803 39.2 18.9 41.0003 18.9 43.2C18.9 45.3997 20.8803 47.2 23.3 47.2C25.7197 47.2 27.7 45.3997 27.7 43.2C27.7 41.0003 25.7197 39.2 23.3 39.2ZM23.3 45.2009C22.0891 45.2009 21.099 44.3008 21.099 43.2C21.099 42.0992 22.0891 41.1991 23.3 41.1991C24.5109 41.1991 25.501 42.0992 25.501 43.2C25.501 44.3008 24.5109 45.2009 23.3 45.2009Z" fill="#F79F11"/>
<path d="M57.3 39.2C55.1003 39.2 53.3 41.0003 53.3 43.2C53.3 45.3997 55.1003 47.2 57.3 47.2C59.4997 47.2 61.3 45.3997 61.3 43.2C61.3 41.0003 59.4997 39.2 57.3 39.2ZM57.3 45.2009C56.1992 45.2009 55.299 44.3008 55.299 43.2C55.299 42.0992 56.1992 41.1991 57.3 41.1991C58.4008 41.1991 59.3009 42.0992 59.3009 43.2C59.3009 44.3008 58.4008 45.2009 57.3 45.2009Z" fill="#F79F11"/>
<path d="M61.9365 30.4L60.1226 21.866C59.3767 19.092 57.2428 17.6 54.363 17.6H26.631C23.6452 17.6 21.9373 19.094 21.0854 21.866L19.1655 30.4H11.7V32.534H18.6335V32.64C15.3278 32.854 12.7679 35.626 12.7679 39.04V53.866H15.9677V57.066C15.9677 60.052 18.3136 62.4 21.3013 62.4C24.2891 62.4 26.635 60.054 26.635 57.066V53.866H54.367V57.066C54.367 60.052 56.7129 62.4 59.7007 62.4C62.6885 62.4 65.0343 60.054 65.0343 57.066V53.866H68.2341V39.04C68.2341 35.734 65.6743 32.96 62.4745 32.64V32.534H69.3V30.4H61.9405H61.9365ZM23.1132 22.506C23.7532 20.586 24.7131 19.732 26.633 19.732H54.365C56.3909 19.732 57.5648 20.586 58.0988 22.398L60.2326 32.638H20.7694L23.1152 22.504L23.1132 22.506ZM24.4991 57.066C24.4991 58.88 23.1132 60.266 21.2993 60.266C19.4855 60.266 18.0996 58.88 18.0996 57.066V53.866H24.4991V57.066ZM62.8965 57.066C62.8965 58.88 61.5106 60.266 59.6967 60.266C57.8828 60.266 56.4969 58.88 56.4969 57.066V53.866H62.8965V57.066ZM66.0962 39.04V51.734H14.8998V39.04C14.8998 36.694 16.8197 34.774 19.1655 34.774H61.8285C64.1744 34.774 66.0942 36.694 66.0942 39.04H66.0962Z" fill="#F79F11"/>
</svg>
